<?xml version="1.0" encoding="UTF-8"?>
<svg version="1.1" xmlns="http://www.w3.org/2000/svg" width="500" height="500">
<path d="M0 0 C1.58683757 1.48409608 3.1599848 2.98086319 4.72607422 4.48681641 C7.03623007 6.69782393 9.38903142 8.78908315 11.83154297 10.85009766 C15.7819152 14.28306146 19.09291919 18.10119702 22.45654297 22.10009766 C23.28025391 23.03595703 24.10396484 23.97181641 24.95263672 24.93603516 C65.73041081 71.52030556 85.45110962 133.60298248 82.45654297 195.10009766 C78.54824353 253.50606064 54.54107039 305.88579213 14.45654297 348.10009766 C13.69833252 348.90133057 13.69833252 348.90133057 12.92480469 349.71875 C5.01637936 358.01680152 -3.34074624 365.27624915 -12.54345703 372.10009766 C-13.10645508 372.52387695 -13.66945313 372.94765625 -14.24951172 373.38427734 C-64.51763705 411.12162937 -128.45673937 426.46632094 -190.54345703 418.10009766 C-234.45717129 411.35164943 -276.92275435 393.47687558 -310.54345703 364.10009766 C-311.69201172 363.11589844 -311.69201172 363.11589844 -312.86376953 362.11181641 C-325.68116864 350.88072907 -337.4569778 338.83864584 -347.54345703 325.10009766 C-348.3910614 323.97115245 -349.23871769 322.84224623 -350.08642578 321.71337891 C-387.95647029 270.64697351 -402.25977437 206.01569727 -393.08691406 143.4453125 C-385.53672671 96.97061931 -364.64557196 52.98711258 -332.12548828 18.83447266 C-330.09266733 16.6817122 -328.17003554 14.51138738 -326.29345703 12.22509766 C-323.07231657 8.41913918 -319.34724902 5.30758562 -315.54345703 2.10009766 C-314.61791016 1.28669922 -313.69236328 0.47330078 -312.73876953 -0.36474609 C-298.86578902 -12.49087349 -283.90674544 -22.45683681 -267.54345703 -30.89990234 C-266.7502002 -31.31481934 -265.95694336 -31.72973633 -265.13964844 -32.15722656 C-181.23693821 -75.62086912 -70.59873861 -64.43898377 0 0 Z " fill="#905EFE" transform="translate(406.54345703125,68.89990234375)"/>
<path d="M0 0 C9.04214966 -0.09365152 18.08412643 -0.1642383 27.12665939 -0.20724869 C31.32778082 -0.22791598 35.52856486 -0.25583926 39.72949219 -0.30175781 C83.43247497 -0.76687592 83.43247497 -0.76687592 102 7.75 C102.77851318 8.09361572 103.55702637 8.43723145 104.35913086 8.79125977 C115.32831036 13.7830379 124.31453117 20.6690401 133 29 C133.86625 29.825 134.7325 30.65 135.625 31.5 C136.40875 32.325 137.1925 33.15 138 34 C138.59167969 34.6084375 139.18335938 35.216875 139.79296875 35.84375 C158.54308269 55.86321401 165.05296889 81.55141494 164.32421875 108.3125 C163.98086597 115.76957706 162.85488076 122.76516204 161 130 C160.73316406 131.08925781 160.46632813 132.17851562 160.19140625 133.30078125 C156.48299092 146.79941305 149.96981283 160.03018717 140 170 C138.33698049 170.27321035 136.66928888 170.51815432 135 170.75 C126.91364177 172.1658993 119.69817478 175.99158342 114 182 C112.24411761 185.36977446 112.24411761 185.36977446 110.875 189 C108.60234174 194.10310891 106.47563768 196.98693054 101.1875 199.1875 C99.1391688 199.83808658 97.07624655 200.44491095 95 201 C93.74316406 201.433125 93.74316406 201.433125 92.4609375 201.875 C81.08339557 205.72928131 69.31382281 206.28984082 57.41005516 206.30496025 C55.0395126 206.30869774 52.66936187 206.32561934 50.29890442 206.34571838 C43.56905484 206.40043464 36.83915103 206.43167226 30.10913086 206.45629883 C25.96371086 206.47236533 21.81857458 206.50277013 17.6733036 206.54106331 C16.11517711 206.55253844 14.55699954 206.55864209 12.9988308 206.55874443 C3.54437417 206.55959083 -5.2419896 207.3326432 -14.49760437 209.32035828 C-19.68150049 210.32629606 -24.73498704 210.45197257 -30 210.375 C-31.02327393 210.36629883 -32.04654785 210.35759766 -33.10083008 210.34863281 C-41.69829453 210.18375178 -49.66839599 209.1426752 -58 207 C-59.14726562 206.70996094 -60.29453125 206.41992188 -61.4765625 206.12109375 C-77.78821309 201.55612362 -90.55468684 192.11537891 -100 178 C-101.89688125 174.41378431 -103.50604535 170.76962976 -105 167 C-105.47647224 165.90286682 -105.47647224 165.90286682 -105.96257019 164.78356934 C-110.56945658 152.42264855 -110.41138967 139.26575513 -110.29296875 126.28125 C-110.28735655 124.44324087 -110.28309416 122.60522718 -110.28010559 120.76721191 C-110.26878446 115.98658318 -110.23943087 111.20623857 -110.20599365 106.42572021 C-110.17501425 101.52473796 -110.16154139 96.6237087 -110.14648438 91.72265625 C-110.11454572 82.14831433 -110.06350849 72.57418101 -110 63 C-108.93056152 62.81969238 -107.86112305 62.63938477 -106.75927734 62.45361328 C-105.32641609 62.20130766 -103.89364061 61.94851458 -102.4609375 61.6953125 C-101.75960693 61.57841064 -101.05827637 61.46150879 -100.33569336 61.34106445 C-85.90436014 58.7512522 -74.96196908 50.30305488 -66 39 C-65.0096003 37.99049099 -64.01138273 36.9884862 -63 36 C-62.99413376 37.14210937 -62.98826752 38.28421875 -62.98222351 39.4609375 C-62.92471346 50.28716994 -62.85180726 61.11320695 -62.76428509 71.9392395 C-62.71978433 77.50342324 -62.68048483 83.06753717 -62.65356445 88.63183594 C-62.62732733 94.01365631 -62.58678466 99.39520502 -62.53681374 104.77685547 C-62.52028178 106.8178364 -62.50868326 108.85886417 -62.50238609 110.89990234 C-63.00202594 134.98568008 -63.00202594 134.98568008 -53 156 C-43.14911059 163.35396258 -31.78233991 162.8405635 -20 162 C-12.51477264 160.69424367 -7.97580459 157.80237845 -3.2421875 151.90234375 C-0.89699425 148.31080566 -0.86670751 145.2354155 -0.84178162 141.05854797 C-0.8319928 139.81754333 -0.82220398 138.5765387 -0.81211853 137.29792786 C-0.80621436 135.92038002 -0.80040392 134.54283179 -0.79467773 133.1652832 C-0.78509889 131.71658041 -0.77508881 130.26788041 -0.76467896 128.81918335 C-0.73762449 124.88355397 -0.71661786 120.94791259 -0.69667697 117.0122416 C-0.67482077 112.90024388 -0.64743029 108.78828318 -0.62062073 104.67631531 C-0.57068889 96.88846425 -0.52575188 89.10059265 -0.48259836 81.3127014 C-0.43323019 72.44699619 -0.3783105 63.5813281 -0.32291877 54.71565878 C-0.20909119 36.47714033 -0.10225383 18.23858683 0 0 Z " fill="#000002" transform="translate(226,134)"/>
<path d="M0 0 C2.07222153 -0.02109584 4.14450549 -0.03611421 6.21679688 -0.04858398 C7.37078979 -0.05760239 8.52478271 -0.06662079 9.71374512 -0.07591248 C13.88249444 0.02038562 17.537712 0.69536194 21.5 1.9375 C22.21285156 2.15639893 22.92570312 2.37529785 23.66015625 2.60083008 C37.88078268 7.33732897 48.84549624 17.64290444 55.875 30.75 C63.32303224 46.7693176 64.71083424 66.10671932 59 82.94921875 C53.06213266 98.20406873 44.43040805 109.19402088 30 117 C21.53991134 120.71884375 13.80775306 122.17043471 4.625 122.0625 C3.88894531 122.05798828 3.15289062 122.05347656 2.39453125 122.04882812 C0.59631842 122.03715142 -1.20185197 122.01922011 -3 122 C-3.17292498 117.50395049 -2.95549213 113.56989829 -2.01806641 109.17089844 C-0.28697327 99.054589 -0.63949207 88.74761167 -0.5859375 78.515625 C-0.56720149 76.24590368 -0.54762631 73.97618914 -0.5272522 71.70648193 C-0.47618197 65.76859561 -0.43642263 59.83068677 -0.39910889 53.8927002 C-0.35891088 47.8190363 -0.30789101 41.74546405 -0.2578125 35.671875 C-0.16135092 23.78131462 -0.0768519 11.89070218 0 0 Z " fill="#905FFB" transform="translate(277,176)"/>
<path d="M0 0 C3.375 1.6875 3.375 1.6875 6 4 C6.78375 4.66 7.5675 5.32 8.375 6 C11.00420686 10.85392036 10.94636335 15.6206715 10 21 C7.99583625 24.86184376 5.34307696 27.16511432 1.6875 29.4375 C-3.73382408 30.57219574 -8.20000978 30.81508991 -13.3125 28.5 C-17.69313614 24.42498963 -19.67041781 20.3482731 -20.5 14.4375 C-19.67776241 8.78461658 -17.53439329 5.42479376 -13.375 1.5625 C-8.79769908 -0.5566208 -4.96305268 -0.80023162 0 0 Z " fill="#030107" transform="translate(372,324)"/>
<path d="M0 0 C9.28400571 -0.02319818 18.5680014 -0.04095318 27.8520298 -0.05181217 C32.16324515 -0.05702465 36.47444062 -0.06409257 40.78564453 -0.07543945 C44.94830902 -0.08632649 49.11095442 -0.09228916 53.27363205 -0.09487724 C54.85959549 -0.09672101 56.44555792 -0.10032141 58.03151321 -0.10573006 C60.25752243 -0.11301771 62.48345338 -0.11398769 64.70947266 -0.11352539 C65.97522125 -0.115746 67.24096985 -0.11796661 68.54507446 -0.12025452 C71.78977936 -0.00731708 74.81648077 0.38327023 78 1 C78 1.33 78 1.66 78 2 C53.58 2 29.16 2 4 2 C3.38733245 6.9013404 2.87558529 11.09018464 2.89993286 15.91270447 C2.90289368 17.02136368 2.90585449 18.13002289 2.90890503 19.27227783 C2.91721344 20.46367371 2.92552185 21.65506958 2.93408203 22.88256836 C2.9412549 24.83845091 2.94842368 26.79433348 2.95543838 28.7502166 C2.96380586 30.83902885 2.97460126 32.92781696 2.98596573 35.01661491 C3.00916488 39.38415574 3.0223726 43.75169214 3.03366089 48.11927795 C3.06698304 60.5342498 3.10868018 72.94915305 3.17138672 85.36401367 C3.20598957 92.23140523 3.22974531 99.09874665 3.24159515 105.96621615 C3.24965716 110.30085833 3.27081135 114.63516978 3.30180001 118.96970546 C3.32167285 122.30914729 3.32164947 125.64853866 3.32470703 128.98803711 C3.3370639 130.17740875 3.34942078 131.3667804 3.3621521 132.5921936 C3.34656301 139.06028975 3.05180226 145.15553391 0 151 C-0.66 151.33 -1.32 151.66 -2 152 C-1.83826325 151.30250295 -1.67652651 150.60500589 -1.50988865 149.88637257 C-0.96583198 146.80658203 -0.86047506 143.94518462 -0.84178162 140.81803894 C-0.8319928 139.57428497 -0.82220398 138.33053101 -0.81211853 137.04908752 C-0.80621516 135.67880287 -0.80040466 134.30851782 -0.79467773 132.93823242 C-0.78509321 131.48923466 -0.77508279 130.04023967 -0.76467896 128.59124756 C-0.73768605 124.66400065 -0.71664616 120.73674179 -0.69667697 116.80945373 C-0.67478272 112.70280652 -0.64741088 108.59619591 -0.62062073 104.48957825 C-0.57074031 96.71595998 -0.52578425 88.94232135 -0.48259836 81.16866332 C-0.43318621 72.31742198 -0.37828285 63.46621737 -0.32291877 54.61501157 C-0.20917013 36.41004183 -0.10231563 18.20503741 0 0 Z " fill="#21123D" transform="translate(226,134)"/>
<path d="M0 0 C0.33 0 0.66 0 1 0 C1.07009445 19.06277031 1.12299032 38.12551444 1.15543652 57.18838692 C1.17090257 66.03969761 1.19198708 74.89092821 1.22631836 83.7421875 C1.25622873 91.45733375 1.27557691 99.172422 1.28226548 106.88762462 C1.28617497 110.97242913 1.29535732 115.0570677 1.31719017 119.141819 C1.33758124 122.98805494 1.34382854 126.83405686 1.33932304 130.68034172 C1.34014708 132.09043462 1.34609726 133.5005355 1.35761642 134.91058159 C1.37259968 136.8395913 1.36715278 138.76872711 1.36076355 140.69778442 C1.36352893 141.77628222 1.36629431 142.85478001 1.36914349 143.96595955 C0.93308892 147.54995127 -0.12624081 149.92637117 -2 153 C-3.485 153.99 -3.485 153.99 -5 155 C-4.60888678 152.18398478 -4.34339056 150.40612697 -2.48195171 148.20460892 C-0.54111651 145.31734709 -0.61615185 143.44015156 -0.60127258 139.97625732 C-0.58873444 138.74229218 -0.57619629 137.50832703 -0.5632782 136.23696899 C-0.56445222 134.87249729 -0.56591136 133.50802581 -0.56762695 132.14355469 C-0.55860939 130.70455076 -0.54828219 129.26555452 -0.53674316 127.8265686 C-0.50914604 123.92195108 -0.49988501 120.01747919 -0.49388909 116.11277676 C-0.48451245 112.03144487 -0.45830966 107.95022208 -0.43388367 103.86895752 C-0.39019539 96.14134828 -0.36166276 88.41376017 -0.33856028 80.68606496 C-0.31152107 71.88801163 -0.26760879 63.09006791 -0.22227156 54.2920928 C-0.12939196 36.19478638 -0.05772642 18.09745097 0 0 Z " fill="#8A66E8" transform="translate(225,134)"/>
<path d="M0 0 C0.33 0 0.66 0 1 0 C1.01030746 1.15099182 1.02061493 2.30198364 1.03123474 3.487854 C1.12930531 14.37411191 1.23206863 25.26031694 1.33933926 36.14648819 C1.39432977 41.7421714 1.44770943 47.33786 1.49731445 52.93359375 C1.54531282 58.34122639 1.59766441 63.74880147 1.65294075 69.15636444 C1.67320485 71.21183576 1.69194242 73.26732276 1.70907402 75.32282257 C1.82803135 90.68723391 1.82803135 90.68723391 3 106 C0.5705484 102.3558226 0.83820425 100.28758728 1 96 C0.34 96 -0.32 96 -1 96 C-1 66.3 -1 36.6 -1 6 C-2.485 8.475 -2.485 8.475 -4 11 C-6.5625 12.875 -6.5625 12.875 -9 14 C-9.66 13.67 -10.32 13.34 -11 13 C-10.45730469 12.48050781 -9.91460937 11.96101562 -9.35546875 11.42578125 C-5.66548263 7.82887586 -2.44046993 4.59382574 0 0 Z " fill="#150344" transform="translate(162,170)"/>
<path d="M0 0 C0 0.66 0 1.32 0 2 C-4.29 2.99 -8.58 3.98 -13 5 C-13.02264294 14.24946751 -13.04096822 23.49891644 -13.05181217 32.74840546 C-13.05701819 37.04386937 -13.0640742 41.33931324 -13.07543945 45.63476562 C-13.08634967 49.78447159 -13.092294 53.93415835 -13.09487724 58.08387756 C-13.09671688 59.66260582 -13.10030911 61.24133308 -13.10573006 62.8200531 C-13.11304861 65.04086534 -13.11398642 67.26159941 -13.11352539 69.48242188 C-13.115746 70.74372925 -13.11796661 72.00503662 -13.12025452 73.30456543 C-12.99108341 77.27400789 -12.52838853 81.06553079 -12 85 C-11.93972169 86.83246055 -11.91203785 88.66672511 -11.9375 90.5 C-11.94652344 91.3559375 -11.95554687 92.211875 -11.96484375 93.09375 C-11.97644531 93.7228125 -11.98804687 94.351875 -12 95 C-12.33 95 -12.66 95 -13 95 C-15.51596766 85.31047747 -15.25463198 75.801455 -15.1953125 65.8671875 C-15.19157639 64.02060093 -15.18873224 62.17401237 -15.18673706 60.3274231 C-15.1791477 55.49746097 -15.1595402 50.66762158 -15.1373291 45.83770752 C-15.11676882 40.89703023 -15.10771369 35.95633286 -15.09765625 31.015625 C-15.07628935 21.34369645 -15.04221095 11.67185849 -15 2 C-12.87528825 1.6648342 -10.75022095 1.33192171 -8.625 1 C-7.44164063 0.814375 -6.25828125 0.62875 -5.0390625 0.4375 C-2 0 -2 0 0 0 Z " fill="#0D0328" transform="translate(131,195)"/>
<path d="M0 0 C25.74 0.33 51.48 0.66 78 1 C78 1.33 78 1.66 78 2 C77.09290787 2.01030746 76.18581573 2.02061493 75.25123596 2.03123474 C66.67446777 2.12948746 58.09776383 2.23203959 49.52110386 2.33933926 C45.1124817 2.39434457 40.7038527 2.44772685 36.29516602 2.49731445 C32.03517772 2.54529069 27.775263 2.59764196 23.51536369 2.65294075 C21.89561754 2.67321472 20.27585133 2.6919509 18.6560688 2.70907402 C10.71961203 2.79391523 2.87562438 2.89843183 -5 4 C-4.0409375 3.8453125 -4.0409375 3.8453125 -3.0625 3.6875 C-2.381875 3.460625 -1.70125 3.23375 -1 3 C-0.67 2.01 -0.34 1.02 0 0 Z " fill="#0B0324" transform="translate(220,338)"/>
<path d="M0 0 C15.18 0.66 30.36 1.32 46 2 C46 2.33 46 2.66 46 3 C31.15544012 6.14116967 14.61074562 4.60971362 0 1 C0 0.67 0 0.34 0 0 Z " fill="#1C0F3C" transform="translate(168,340)"/>
<path d="M0 0 C2.73408635 4.10112952 3.72479787 8.26799994 5 13 C5.28359375 13.96550781 5.5671875 14.93101562 5.859375 15.92578125 C8.85018517 27.47990167 8.28475915 39.15109887 8 51 C7.67 51 7.34 51 7 51 C6.97494385 50.3387915 6.9498877 49.67758301 6.92407227 48.99633789 C6.80846898 46.01817695 6.68558246 43.0403608 6.5625 40.0625 C6.52318359 39.02158203 6.48386719 37.98066406 6.44335938 36.90820312 C6.38051758 35.42416992 6.38051758 35.42416992 6.31640625 33.91015625 C6.27974854 32.99371338 6.24309082 32.07727051 6.20532227 31.13305664 C6.22996136 29.0179272 6.22996136 29.0179272 5 28 C4.599617 25.14471393 4.2481773 22.30263513 3.9375 19.4375 C3.84662109 18.63119141 3.75574219 17.82488281 3.66210938 16.99414062 C3.43752551 14.99652623 3.21826764 12.9983144 3 11 C2.34 11 1.68 11 1 11 C0.67 7.37 0.34 3.74 0 0 Z " fill="#1A0C39" transform="translate(382,197)"/>
<path d="M0 0 C1.485 0.99 1.485 0.99 3 2 C3.38818359 4.35083008 3.38818359 4.35083008 3.3984375 7.26953125 C3.40230469 8.32333984 3.40617187 9.37714844 3.41015625 10.46289062 C3.39855469 11.56826172 3.38695312 12.67363281 3.375 13.8125 C3.38660156 14.90626953 3.39820313 16.00003906 3.41015625 17.12695312 C3.40628906 18.18462891 3.40242188 19.24230469 3.3984375 20.33203125 C3.39505371 21.29858643 3.39166992 22.2651416 3.38818359 23.26098633 C2.93714438 26.44350768 1.80665469 28.37194835 0 31 C-1.34869811 28.30260377 -0.67056824 26.30216716 -0.26220703 23.40234375 C0.22419519 18.9459212 0.10264179 14.4773538 0.0625 10 C0.05798828 9.03449219 0.05347656 8.06898438 0.04882812 7.07421875 C0.03715417 4.71607911 0.02078021 2.35807398 0 0 Z " fill="#13072F" transform="translate(338,224)"/>
<path d="M0 0 C0.66 0.33 1.32 0.66 2 1 C1.01 2.485 1.01 2.485 0 4 C-0.39013716 5.9896995 -0.73202649 7.99019869 -1 10 C-4.62326739 11.2077558 -5.64146369 10.54311128 -9 9 C-9.2475 9.639375 -9.495 10.27875 -9.75 10.9375 C-11 13 -11 13 -13.125 13.75 C-14.053125 13.87375 -14.053125 13.87375 -15 14 C-10.75802296 8.34403061 -5.5954014 4.28075369 0 0 Z " fill="#8861E7" transform="translate(104,60)"/>
<path d="M0 0 C0.66 0.33 1.32 0.66 2 1 C0.75264433 1.6509259 -0.49801832 2.29551669 -1.75 2.9375 C-2.44609375 3.29714844 -3.1421875 3.65679687 -3.859375 4.02734375 C-9.12955075 6.4220039 -14.31185175 6.18343704 -20 6.1875 C-21.35351562 6.20586914 -21.35351562 6.20586914 -22.734375 6.22460938 C-23.60578125 6.22654297 -24.4771875 6.22847656 -25.375 6.23046875 C-26.16648438 6.23457764 -26.95796875 6.23868652 -27.7734375 6.24291992 C-30.23783271 5.97405224 -31.86541094 5.2296427 -34 4 C-29.33333333 4 -24.66666667 4 -20 4 C-12.66034397 3.72176467 -6.61921226 3.23605933 0 0 Z " fill="#8661DD" transform="translate(216,291)"/>
<path d="M0 0 C-3.81118345 2.54078897 -6.90083173 2.28832297 -11.31640625 2.265625 C-12.53480446 2.26849518 -12.53480446 2.26849518 -13.77781677 2.27142334 C-15.49340119 2.27278347 -17.20899595 2.26909904 -18.92456055 2.26074219 C-21.55606069 2.25002622 -24.18688029 2.2606502 -26.81835938 2.2734375 C-28.48437651 2.27211615 -30.15039322 2.26955425 -31.81640625 2.265625 C-33.0008004 2.27169769 -33.0008004 2.27169769 -34.2091217 2.27789307 C-39.77007025 2.22992975 -39.77007025 2.22992975 -42 0 C-40.59306885 0.00785522 -40.59306885 0.00785522 -39.15771484 0.01586914 C-35.65770852 0.03297297 -32.15774701 0.04548027 -28.65771484 0.05493164 C-27.14663998 0.05994162 -25.63556991 0.06675144 -24.12451172 0.07543945 C-21.94497488 0.08765176 -19.76550247 0.09326178 -17.5859375 0.09765625 C-16.2767334 0.10289307 -14.9675293 0.10812988 -13.61865234 0.11352539 C-0.83099637 -0.28765259 -0.83099637 -0.28765259 0 0 Z " fill="#8A64E5" transform="translate(218,343)"/>
<path d="M0 0 C0.99 0.33 1.98 0.66 3 1 C-5.94210283 10.14636406 -5.94210283 10.14636406 -11 14 C-11.66 14 -12.32 14 -13 14 C-13.33 13.01 -13.66 12.02 -14 11 C-13.34 11 -12.68 11 -12 11 C-12 10.34 -12 9.68 -12 9 C-10.35 8.67 -8.7 8.34 -7 8 C-7 7.01 -7 6.02 -7 5 C-6.34 5 -5.68 5 -5 5 C-4.67 4.34 -4.34 3.68 -4 3 C-3.34 3.33 -2.68 3.66 -2 4 C-2 3.34 -2 2.68 -2 2 C-1.34 2 -0.68 2 0 2 C0 1.34 0 0.68 0 0 Z " fill="#845CE2" transform="translate(413,421)"/>
<path d="M0 0 C0.66 0.33 1.32 0.66 2 1 C-1.75 5.875 -1.75 5.875 -4 7 C-4.99 6.67 -5.98 6.34 -7 6 C-7.33 7.32 -7.66 8.64 -8 10 C-10.64 10.33 -13.28 10.66 -16 11 C-12.94900596 7.67633258 -9.76550484 5.45775774 -5.875 3.1875 C-4.82054687 2.56230469 -3.76609375 1.93710937 -2.6796875 1.29296875 C-1.35324219 0.65294922 -1.35324219 0.65294922 0 0 Z " fill="#875FE4" transform="translate(133,41)"/>
<path d="M0 0 C0 3.63809867 -1.22232469 4.97903022 -3.58984375 7.63671875 C-6.83438859 10.77341169 -10.15950189 11.13284362 -14.5 11.3125 C-18.41799553 11.24055017 -20.84083238 10.44580719 -24 8 C-22 7 -22 7 -19.1875 7.9375 C-18.135625 8.288125 -17.08375 8.63875 -16 9 C-12.49863209 9.25619765 -9.4146047 8.78048108 -6 8 C-6 7.01 -6 6.02 -6 5 C-4.68 4.67 -3.36 4.34 -2 4 C-2 3.01 -2 2.02 -2 1 C-1.34 0.67 -0.68 0.34 0 0 Z " fill="#13072F" transform="translate(381,343)"/>
<path d="M0 0 C0.66 0.99 1.32 1.98 2 3 C1.01 3.66 0.02 4.32 -1 5 C0.32 6.32 1.64 7.64 3 9 C2.34 9.66 1.68 10.32 1 11 C0.4225 10.814375 -0.155 10.62875 -0.75 10.4375 C-4.13051481 9.78017768 -6.09750367 11.35085436 -9 13 C-7.50923566 9.7173068 -5.61379679 7.06922559 -3.375 4.25 C-2.74335937 3.45078125 -2.11171875 2.6515625 -1.4609375 1.828125 C-0.97882813 1.22484375 -0.49671875 0.6215625 0 0 Z " fill="#8860E7" transform="translate(69,93)"/>
<path d="M0 0 C0.66 0.33 1.32 0.66 2 1 C1.0910465 3.21178684 0.1731717 5.41915224 -0.75 7.625 C-1.00265625 8.24246094 -1.2553125 8.85992187 -1.515625 9.49609375 C-3.28123019 13.68940608 -5.37074069 17.28474228 -8 21 C-9 18 -9 18 -8 15 C-7.34 15 -6.68 15 -6 15 C-6 13.35 -6 11.7 -6 10 C-5.34 9.67 -4.68 9.34 -4 9 C-3.34786708 6.97536745 -3.34786708 6.97536745 -3 5 C-2.34 5 -1.68 5 -1 5 C-0.67 3.35 -0.34 1.7 0 0 Z " fill="#0D0427" transform="translate(382,273)"/>
<path d="M0 0 C2.83385777 3.72876023 2.83385777 3.72876023 4.03125 5.68359375 C7.2334538 10.71408283 10.57628755 12.72484428 16 15 C17.33749398 15.65827964 18.67203288 16.32270719 20 17 C15.10689708 17.34950735 12.18822296 16.5493531 8 14 C5.625 11.9375 5.625 11.9375 4 10 C4 9.34 4 8.68 4 8 C3.01 7.67 2.02 7.34 1 7 C0.67 4.69 0.34 2.38 0 0 Z " fill="#13072F" transform="translate(166,280)"/>
<path d="M0 0 C0.99 0.33 1.98 0.66 3 1 C1.73046875 2.46484375 0.4609375 3.9296875 -0.80859375 5.39453125 C-3.49626821 9.01628274 -3.22022546 12.66889926 -3 17 C-2.08885464 20.32186171 -2.08885464 20.32186171 -1 23 C-1.66 23.33 -2.32 23.66 -3 24 C-5.21747156 20.44152785 -5.23889479 17.51461655 -5.1875 13.375 C-5.17783203 11.65410156 -5.17783203 11.65410156 -5.16796875 9.8984375 C-5 7 -5 7 -4 5 C-3.34 5 -2.68 5 -2 5 C-2 4.01 -2 3.02 -2 2 C-1.34 2 -0.68 2 0 2 C0 1.34 0 0.68 0 0 Z " fill="#835ED7" transform="translate(356,325)"/>
<path d="M0 0 C0.33 0.99 0.66 1.98 1 3 C0.41992188 3.02578125 -0.16015625 3.0515625 -0.7578125 3.078125 C-6.38580094 3.48675782 -9.30837699 4.73626225 -14 8 C-17.875 8.75 -17.875 8.75 -21 9 C-15.72927447 3.18058695 -8.52418866 1.67180256 -1 1 C-0.67 0.67 -0.34 0.34 0 0 Z " fill="#815DD7" transform="translate(367,302)"/>
<path d="M0 0 C0.22429688 0.91265625 0.22429688 0.91265625 0.453125 1.84375 C0.84921214 3.405465 1.28703638 4.95678794 1.75 6.5 C2 9 2 9 0.625 10.8125 C-1.16323516 13.21973964 -1.28784482 14.2751187 -1.5625 17.1875 C-1.706875 18.445625 -1.85125 19.70375 -2 21 C-2.66 21.33 -3.32 21.66 -4 22 C-3.51298949 14.40935336 -2.00236413 7.32940833 0 0 Z " fill="#8261D0" transform="translate(19,187)"/>
<path d="M0 0 C-3.12488567 2.52394612 -6.31314387 4.39701907 -10 6 C-10.66 5.67 -11.32 5.34 -12 5 C-11 2 -11 2 -8.8125 0.25 C-5.39631501 -1.26830444 -3.56486048 -0.91194105 0 0 Z " fill="#875CE8" transform="translate(367,458)"/>
<path d="M0 0 C0.33 1.32 0.66 2.64 1 4 C0.01 4.495 0.01 4.495 -1 5 C-1.68729254 7.11846285 -1.68729254 7.11846285 -2.125 9.5625 C-2.29257812 10.38878906 -2.46015625 11.21507813 -2.6328125 12.06640625 C-2.75398438 12.70449219 -2.87515625 13.34257813 -3 14 C-4.65 14 -6.3 14 -8 14 C-6.6744419 10.37723685 -5.05653045 7.36494652 -2.875 4.1875 C-2.33617187 3.39730469 -1.79734375 2.60710937 -1.2421875 1.79296875 C-0.83226562 1.20128906 -0.42234375 0.60960938 0 0 Z " fill="#865EE1" transform="translate(55,111)"/>
<path d="M0 0 C0.66 0 1.32 0 2 0 C1.37321829 3.66172475 0.35548154 6.8818995 -1.0625 10.3125 C-1.42472656 11.19550781 -1.78695313 12.07851563 -2.16015625 12.98828125 C-2.57587891 13.98408203 -2.57587891 13.98408203 -3 15 C-4.32 14.34 -5.64 13.68 -7 13 C-6.34 12.67 -5.68 12.34 -5 12 C-4.67 11.01 -4.34 10.02 -4 9 C-3.34 9.33 -2.68 9.66 -2 10 C-2.04125 9.0925 -2.0825 8.185 -2.125 7.25 C-2.00468444 4.1217954 -1.6085292 2.61385994 0 0 Z " fill="#845EDF" transform="translate(473,329)"/>
<path d="M0 0 C0.33 0.66 0.66 1.32 1 2 C0.00390625 4.1640625 0.00390625 4.1640625 -1.4375 6.625 C-1.91058594 7.44226563 -2.38367188 8.25953125 -2.87109375 9.1015625 C-3.24363281 9.72804688 -3.61617188 10.35453125 -4 11 C-4.66 10.34 -5.32 9.68 -6 9 C-5.77986323 6.13822205 -5.3963898 4.48256149 -3.5625 2.25 C-2 1 -2 1 0 0 Z " fill="#865DE8" transform="translate(463,355)"/>
<path d="M0 0 C0.66 1.32 1.32 2.64 2 4 C1.01 4.33 0.02 4.66 -1 5 C-1.33 5.66 -1.66 6.32 -2 7 C-2.66 7.144375 -3.32 7.28875 -4 7.4375 C-4.66 7.623125 -5.32 7.80875 -6 8 C-6.33 8.99 -6.66 9.98 -7 11 C-9.0625 11.6875 -9.0625 11.6875 -11 12 C-8.47295673 6.78797325 -4.38226641 3.6119868 0 0 Z " fill="#825EE5" transform="translate(88,74)"/>
<path d="M0 0 C0.66 0.33 1.32 0.66 2 1 C-3.64732312 6.00191477 -9.6930361 5.78317615 -17 6 C-17 5.67 -17 5.34 -17 5 C-16.19175781 4.80664062 -15.38351562 4.61328125 -14.55078125 4.4140625 C-13.48214844 4.15367187 -12.41351563 3.89328125 -11.3125 3.625 C-10.25675781 3.36976563 -9.20101563 3.11453125 -8.11328125 2.8515625 C-5.01295392 2.07633613 -5.01295392 2.07633613 -2.23046875 0.8359375 C-1.49441406 0.56007813 -0.75835937 0.28421875 0 0 Z " fill="#12072F" transform="translate(307,292)"/>
<path d="M0 0 C2.31399023 2.31399023 2.32256804 2.98604724 2.6328125 6.1328125 C2.71660156 6.93847656 2.80039063 7.74414062 2.88671875 8.57421875 C2.96535156 9.41597656 3.04398438 10.25773437 3.125 11.125 C3.21136719 11.97449219 3.29773438 12.82398438 3.38671875 13.69921875 C3.59902557 15.79869727 3.80053603 17.89926242 4 20 C1.5705484 16.3558226 1.83820425 14.28758728 2 10 C1.34 10 0.68 10 0 10 C0 6.7 0 3.4 0 0 Z " fill="#11082E" transform="translate(161,256)"/>
<path d="M0 0 C4.45624412 0.51816792 7.21445723 1.67043522 11 4 C11.886875 4.12375 12.77375 4.2475 13.6875 4.375 C14.450625 4.58125 15.21375 4.7875 16 5 C17.3125 7.5625 17.3125 7.5625 18 10 C12 7 6 4 0 1 C0 0.67 0 0.34 0 0 Z " fill="#805DD1" transform="translate(328,142)"/>
<path d="M0 0 C1.66611905 -0.042721 3.33382885 -0.04063832 5 0 C5.33 0.33 5.66 0.66 6 1 C8.67058851 1.14115161 11.32432238 1.04247107 14 1 C14 1.33 14 1.66 14 2 C8.61972975 3.19088986 3.54708616 4.2919519 -2 4 C-1.01 3.67 -0.02 3.34 1 3 C0.67 2.01 0.34 1.02 0 0 Z " fill="#7D58E1" transform="translate(286,482)"/>
<path d="M0 0 C0.66 0 1.32 0 2 0 C2.66 2.64 3.32 5.28 4 8 C0.4213696 6.34832443 -2.74820188 4.21713508 -6 2 C-3.50907189 0.75453595 -2.58919267 1.2232422 0 2 C0 1.34 0 0.68 0 0 Z " fill="#835EE1" transform="translate(116,442)"/>
<path d="M0 0 C1.73694677 2.60542016 2.69100448 4.58342775 3.6875 7.5 C3.95949219 8.2734375 4.23148437 9.046875 4.51171875 9.84375 C5 12 5 12 4 15 C1 13 1 13 0 10 C-0.06802967 8.27204648 -0.08495645 6.54164635 -0.0625 4.8125 C-0.05347656 3.91144531 -0.04445313 3.01039063 -0.03515625 2.08203125 C-0.02355469 1.39496094 -0.01195312 0.70789063 0 0 Z " fill="#815CDB" transform="translate(474,168)"/>
<path d="M0 0 C2 3 2 3 1.64453125 5.015625 C1.36996094 5.75296875 1.09539063 6.4903125 0.8125 7.25 C0.379375 8.43142578 0.379375 8.43142578 -0.0625 9.63671875 C-1.31315931 12.78942242 -2.61629367 15.90313346 -4 19 C-5.79341438 14.83326479 -4.01173384 11.25336659 -2.5625 7.25 C-2.19801758 6.20392578 -2.19801758 6.20392578 -1.82617188 5.13671875 C-1.22689752 3.42114902 -0.61470115 1.71010285 0 0 Z " fill="#835EDB" transform="translate(25,168)"/>
<path d="M0 0 C1 3 1 3 0.3125 5.5625 C-1.17775837 8.3301227 -2.01922707 9.09673548 -5 10 C-5.99 9.67 -6.98 9.34 -8 9 C-5.36 6.03 -2.72 3.06 0 0 Z " fill="#0C031F" transform="translate(326,276)"/>
<path d="M0 0 C3.59634744 3.49359465 6.83451967 7.11098131 10 11 C8 11 6 11 4 11 C3.71125 10.113125 3.4225 9.22625 3.125 8.3125 C2.16851252 5.49617576 1.13201054 2.74916844 0 0 Z " fill="#0E0525" transform="translate(360,164)"/>
<path d="M0 0 C-4.31369972 2.87579981 -7.80734761 4 -13 4 C-12.67 3.01 -12.34 2.02 -12 1 C-8.32433144 -0.61729417 -3.92760325 -0.06546005 0 0 Z " fill="#845CDD" transform="translate(329,475)"/>
<path d="M0 0 C-3.68087353 2.45391569 -6.44355588 2.22802759 -10.6875 2.125 C-11.7403418 2.11146484 -11.7403418 2.11146484 -12.81445312 2.09765625 C-14.54311525 2.07413704 -16.27160145 2.03826713 -18 2 C-18 1.67 -18 1.34 -18 1 C-15.75152519 0.63627613 -13.50113812 0.28435904 -11.25 -0.0625 C-9.99703125 -0.25972656 -8.7440625 -0.45695312 -7.453125 -0.66015625 C-4.49983411 -0.95080818 -2.7397586 -0.98935727 0 0 Z " fill="#835ED9" transform="translate(218,343)"/>
<path d="M0 0 C1.18771723 3.42943519 0.80226223 5.37784675 -0.4375 8.75 C-0.86869141 9.94882812 -0.86869141 9.94882812 -1.30859375 11.171875 C-1.65083984 12.07679688 -1.65083984 12.07679688 -2 13 C-2.33 13 -2.66 13 -3 13 C-3.152 3.88 -3.152 3.88 -2 1 C-1.34 0.67 -0.68 0.34 0 0 Z " fill="#835EDD" transform="translate(478,316)"/>
<path d="M0 0 C0.99 0.33 1.98 0.66 3 1 C4.203125 3.58203125 4.203125 3.58203125 5.25 6.8125 C5.60578125 7.87082031 5.9615625 8.92914063 6.328125 10.01953125 C6.9784667 12.90447728 7.02681757 14.28156631 6 17 C4.99580363 14.5433053 3.99649499 12.08481647 3 9.625 C2.71382813 8.92632812 2.42765625 8.22765625 2.1328125 7.5078125 C0 2.2265625 0 2.2265625 0 0 Z " fill="#8460D7" transform="translate(379,188)"/>
<path d="M0 0 C0.33 0.99 0.66 1.98 1 3 C1.66 3.33 2.32 3.66 3 4 C0.64031256 6.09749995 -0.54616994 6.96905704 -3.75 7.1875 C-4.86375 7.0946875 -4.86375 7.0946875 -6 7 C-4.02 4.69 -2.04 2.38 0 0 Z " fill="#895EE9" transform="translate(76,86)"/>
<path d="M0 0 C1.28197266 -0.01160156 1.28197266 -0.01160156 2.58984375 -0.0234375 C5.4850126 0.4430826 6.88197953 1.46261778 9.0625 3.375 C8.0725 3.705 7.0825 4.035 6.0625 4.375 C6.0625 3.715 6.0625 3.055 6.0625 2.375 C-0.99401252 2.22524761 -0.99401252 2.22524761 -7.9375 3.375 C-5.48758495 0.33871184 -3.84994451 -0.03473634 0 0 Z " fill="#180A39" transform="translate(366.9375,323.625)"/>
<path d="M0 0 C0.66 0.33 1.32 0.66 2 1 C-0.31537955 4.72114571 -2.28579473 7.61229661 -6 10 C-5.00475043 5.35550201 -4.03925611 2.69283741 0 0 Z " fill="#875FDF" transform="translate(160,170)"/>
<path d="M0 0 C2.31 0 4.62 0 7 0 C3.98112756 3.48331435 1.43090471 4.79157144 -3 6 C-2.67 5.01 -2.34 4.02 -2 3 C-1.34 3 -0.68 3 0 3 C0 2.01 0 1.02 0 0 Z " fill="#845CDE" transform="translate(371,451)"/>
<path d="M0 0 C2.93200474 2.85276137 5.64315404 5.65079784 8 9 C4 9 4 9 2.375 7.625 C1.92125 7.08875 1.4675 6.5525 1 6 C0.34 5.34 -0.32 4.68 -1 4 C-0.34 4 0.32 4 1 4 C0.67 2.68 0.34 1.36 0 0 Z " fill="#7D58D0" transform="translate(129,316)"/>
<path d="M0 0 C2.08218362 -0.10832169 4.16599129 -0.18573541 6.25 -0.25 C7.99023438 -0.31960938 7.99023438 -0.31960938 9.765625 -0.390625 C13.57666013 0.06964494 14.65511755 1.05148444 17 4 C16.67 4.66 16.34 5.32 16 6 C14.824375 5.0409375 14.824375 5.0409375 13.625 4.0625 C9.44649822 1.21991345 4.92358402 1.19460806 0 1 C0 0.67 0 0.34 0 0 Z " fill="#8661DE" transform="translate(362,323)"/>
<path d="M0 0 C0.33 0.99 0.66 1.98 1 3 C-1.97 5.475 -1.97 5.475 -5 8 C-5.66 7.67 -6.32 7.34 -7 7 C-2.25 1.125 -2.25 1.125 0 0 Z " fill="#7F5AD4" transform="translate(345,311)"/>
<path d="M0 0 C-0.59167969 0.25394531 -1.18335938 0.50789063 -1.79296875 0.76953125 C-6.03640294 2.61781335 -10.09893529 4.48318405 -14 7 C-13.8125 5.1875 -13.8125 5.1875 -13 3 C-8.51312248 -0.27420792 -5.32121802 -1.46029268 0 0 Z " fill="#10042B" transform="translate(358,305)"/>
<path d="M0 0 C3.3 0.33 6.6 0.66 10 1 C10 1.99 10 2.98 10 4 C11.32 4.33 12.64 4.66 14 5 C13.01 5.495 13.01 5.495 12 6 C9.92803369 5.26821134 7.8891448 4.44100997 5.875 3.5625 C4.77929688 3.08941406 3.68359375 2.61632812 2.5546875 2.12890625 C1.71164063 1.75636719 0.86859375 1.38382812 0 1 C0 0.67 0 0.34 0 0 Z " fill="#835ED7" transform="translate(151,467)"/>
<path d="M0 0 C1.64936913 0.78427352 3.29441127 1.57765259 4.9375 2.375 C5.85402344 2.81585938 6.77054687 3.25671875 7.71484375 3.7109375 C10 5 10 5 11 7 C6.15833214 6.54961229 3.50331713 5.40027839 0 2 C0 1.34 0 0.68 0 0 Z " fill="#130730" transform="translate(332,144)"/>
<path d="M0 0 C2.475 0.495 2.475 0.495 5 1 C5.33 3.97 5.66 6.94 6 10 C3.25722422 6.80009492 1.3697164 3.99500618 0 0 Z " fill="#835DDD" transform="translate(42,367)"/>
<path d="M0 0 C1.32 0 2.64 0 4 0 C4 0.66 4 1.32 4 2 C4.78375 2.268125 5.5675 2.53625 6.375 2.8125 C9 4 9 4 11 7 C6.89188572 5.55007731 3.53144334 3.54592427 0 1 C0 0.67 0 0.34 0 0 Z " fill="#13072F" transform="translate(140,327)"/>
<path d="M0 0 C1.98 0.66 3.96 1.32 6 2 C4.625 4 4.625 4 3 6 C2.34 6 1.68 6 1 6 C-0.0625 4.125 -0.0625 4.125 -1 2 C-0.67 1.34 -0.34 0.68 0 0 Z " fill="#875CEB" transform="translate(394,433)"/>
<path d="M0 0 C0.33 0 0.66 0 1 0 C0.67 3.96 0.34 7.92 0 12 C-0.33 12 -0.66 12 -1 12 C-1.66 8.7 -2.32 5.4 -3 2 C-2.01 2.495 -2.01 2.495 -1 3 C-0.67 2.01 -0.34 1.02 0 0 Z " fill="#825EDF" transform="translate(485,284)"/>
<path d="M0 0 C0.625 1.8125 0.625 1.8125 1 4 C0.01 5.485 0.01 5.485 -1 7 C-1.66 7 -2.32 7 -3 7 C-3 7.99 -3 8.98 -3 10 C-3.66 10 -4.32 10 -5 10 C-3.66511872 6.40608886 -2.03977277 3.24509304 0 0 Z " fill="#7D5ADD" transform="translate(46,125)"/>
<path d="M0 0 C0.99 0 1.98 0 3 0 C3 0.66 3 1.32 3 2 C4.32 2.33 5.64 2.66 7 3 C6.01 4.32 5.02 5.64 4 7 C2.02 3.535 2.02 3.535 0 0 Z " fill="#855FE2" transform="translate(48,377)"/>
<path d="M0 0 C0.33 1.32 0.66 2.64 1 4 C-0.75 5.5625 -0.75 5.5625 -3 7 C-5.25 6.6875 -5.25 6.6875 -7 6 C-4.38058783 4.25372522 -2.96175123 3.61277612 0 3 C0 2.01 0 1.02 0 0 Z " fill="#7F5BD8" transform="translate(333,327)"/>
<path d="M0 0 C2.3125 0.1875 2.3125 0.1875 5 1 C6.875 3.4375 6.875 3.4375 8 6 C7.67 6.66 7.34 7.32 7 8 C5.83035398 6.8572081 4.66435444 5.71068285 3.5 4.5625 C2.8503125 3.92441406 2.200625 3.28632813 1.53125 2.62890625 C0 1 0 1 0 0 Z " fill="#08001F" transform="translate(132,319)"/>
<path d="M0 0 C0 3 0 3 0 3 Z M-5 2 C-3.68 2.33 -2.36 2.66 -1 3 C-0.67 4.98 -0.34 6.96 0 9 C-2.52588702 6.63707344 -3.88820837 5.33537489 -5 2 Z " fill="#875FDE" transform="translate(173,281)"/>
<path d="M0 0 C0.77321882 2.98241547 1.41196203 5.97580475 2 9 C1.01 9.66 0.02 10.32 -1 11 C-1.125 3.375 -1.125 3.375 0 0 Z " fill="#8661E1" transform="translate(19,187)"/>
<path d="M0 0 C1.32 0.33 2.64 0.66 4 1 C4 1.66 4 2.32 4 3 C4.66 3 5.32 3 6 3 C6.33 4.65 6.66 6.3 7 8 C4.35247996 5.42215154 2.05567935 3.08351902 0 0 Z " fill="#11062B" transform="translate(321,191)"/>
<path d="M0 0 C3.55780196 0.60990891 6.6828589 1.5783681 10 3 C6.18510326 4.46726798 3.70988378 3.43336419 0 2 C0 1.34 0 0.68 0 0 Z " fill="#825ED9" transform="translate(174,475)"/>
<path d="M0 0 C2.31 0 4.62 0 7 0 C7.33 1.32 7.66 2.64 8 4 C2.25 2.25 2.25 2.25 0 0 Z " fill="#855EE2" transform="translate(135,459)"/>
<path d="M0 0 C0.66 1.32 1.32 2.64 2 4 C0.35 5.32 -1.3 6.64 -3 8 C-3.66 7.67 -4.32 7.34 -5 7 C-3.35 4.69 -1.7 2.38 0 0 Z " fill="#805BD8" transform="translate(373,294)"/>
<path d="M0 0 C2.64 0.66 5.28 1.32 8 2 C8 2.99 8 3.98 8 5 C4.62496331 3.8141763 2.35277269 2.72426311 0 0 Z " fill="#7E59CE" transform="translate(173,290)"/>
<path d="M0 0 C-0.33 0.99 -0.66 1.98 -1 3 C-4.3 3 -7.6 3 -11 3 C-6.9903514 0.32690093 -4.82843714 0 0 0 Z " fill="#825FD7" transform="translate(195,18)"/>
<path d="M0 0 C0.66 0 1.32 0 2 0 C0.75023244 3.65316671 0.32901247 4.78065836 -3 7 C-2.25 2.25 -2.25 2.25 0 0 Z " fill="#835DD1" transform="translate(223,282)"/>
</svg>
